PathFileType	3	(X/Y/Z)	D:\MSKbioDyn\WearableRobot\20250106\S011\S011_static\S011_walking01.trc
DataRate	CameraRate	NumFrames	NumMarkers	Units	OrigDataRate	OrigDataStartFrame	OrigNumFrames
200.0	200.0	9	39	mm	200.0	1634	1867	
Frame#	Time	LFHD			RFHD			LBHD			RBHD			C7			T10			CLAV			STRN			RBAK			LSHO			LUPA			LELB			LFRM			LWRA			LWRB			LFIN			RSHO			RUPA			RELB			RFRM			RWRA			RWRB			RFIN			LASI			RASI			LPSI			RPSI			LTHI			LKNE			LTIB			LANK			LHEE			LTOE			RTHI			RKNE			RTIB			RANK			RHEE			RTOE			
		X1	Y1	Z1	X2	Y2	Z2	X3	Y3	Z3	X4	Y4	Z4	X5	Y5	Z5	X6	Y6	Z6	X7	Y7	Z7	X8	Y8	Z8	X9	Y9	Z9	X10	Y10	Z10	X11	Y11	Z11	X12	Y12	Z12	X13	Y13	Z13	X14	Y14	Z14	X15	Y15	Z15	X16	Y16	Z16	X17	Y17	Z17	X18	Y18	Z18	X19	Y19	Z19	X20	Y20	Z20	X21	Y21	Z21	X22	Y22	Z22	X23	Y23	Z23	X24	Y24	Z24	X25	Y25	Z25	X26	Y26	Z26	X27	Y27	Z27	X28	Y28	Z28	X29	Y29	Z29	X30	Y30	Z30	X31	Y31	Z31	X32	Y32	Z32	X33	Y33	Z33	X34	Y34	Z34	X35	Y35	Z35	X36	Y36	Z36	X37	Y37	Z37	X38	Y38	Z38	X39	Y39	Z39	
1634	8.16	245.33354	1667.0436	-321.87595	232.00502	1660.7769	-189.73413	130.07555	1592.3949	-330.17233	121.29815	1579.7421	-193.2923	84.152756	1464.5967	-258.53421	32.047001	1159.6195	-240.1295	212.17616	1381.8824	-266.15341	243.37511	1181.7809	-264.8764	19.560825	1282.2424	-183.32451	134.22467	1407.1018	-440.31732	78.289391	1209.759	-505.95743	95.763374	1055.587	-511.73587	154.25464	950.73242	-529.39099	184.0307	832.34924	-473.99402	154.07794	835.03894	-536.28253	184.81433	761.72552	-535.1554	149.94191	1408.2051	-84.366264	129.5836	1226.6648	-12.867671	137.12566	1051.6095	-13.857179	208.907	945.15149	9.7355995	268.86438	851.87006	-48.935192	227.61676	837.34668	8.4979343	286.59082	778.52246	14.796953	224.90157	941.47473	-377.92465	213.99704	951.28687	-132.22932	19.167963	956.89532	-303.69083	15.565574	955.39679	-231.84207	218.49448	755.16443	-448.55914	302.41071	516.92816	-422.31421	226.6286	395.96286	-432.30414	124.35292	162.62132	-393.62076	37.493958	130.65039	-330.42819	244.98843	81.805832	-389.25232	164.56659	735.28058	-90.925713	131.41367	479.10541	-138.20177	65.595627	311.76758	-130.41487	35.332722	85.839867	-189.49187	-47.948193	38.31768	-235.78732	181.68056	50.05822	-220.57857
1635	8.165	245.36514	1666.8754	-322.07703	232.08563	1660.672	-189.90433	130.0818	1592.2244	-330.26141	121.34222	1579.7075	-193.38326	84.097656	1464.6465	-258.48138	31.509708	1159.7345	-240.26494	212.05806	1381.6823	-266.24756	242.94841	1181.576	-264.97079	19.361824	1282.3943	-183.13985	133.98547	1407.1436	-440.43384	76.091293	1209.8982	-505.44293	91.699333	1055.7351	-511.27713	148.23325	949.92999	-529.27515	176.11765	831.01031	-474.14075	145.82567	834.38452	-536.23608	175.05652	760.3772	-535.45508	150.10094	1408.0975	-84.457771	131.29028	1226.7131	-12.668516	140.89291	1051.5623	-13.251373	214.41411	946.21362	9.976285	274.80539	853.66187	-48.861889	234.6976	838.75818	8.8019075	295.04553	781.22504	14.668262	224.70164	941.4953	-377.72498	212.35139	950.93738	-132.23785	18.691204	956.88245	-304.47092	14.818567	955.3537	-232.6651	219.13976	755.86877	-448.68814	304.51132	517.91272	-422.18594	231.28818	395.18393	-432.26648	135.04776	159.2506	-393.57324	49.089634	124.59291	-330.72083	257.54456	81.600105	-389.20068	162.43571	735.09589	-90.972038	127.52544	478.82031	-138.37846	60.717102	312.08713	-130.64886	30.211906	86.398811	-189.27347	-53.519611	38.387177	-236.00508	175.95506	49.860611	-220.51521
1636	8.17	245.34448	1666.6714	-322.28824	232.15518	1660.5868	-190.09579	130.0056	1592.0791	-330.40372	121.37938	1579.6371	-193.47798	84.081627	1464.6228	-258.4292	30.932976	1159.7131	-240.57286	211.97247	1381.5284	-266.39926	242.47484	1181.3397	-265.11371	19.137798	1282.5038	-183.0177	133.73596	1407.1196	-440.59525	73.996109	1210.094	-504.8403	88.238159	1056.0326	-510.09445	142.42711	949.39789	-528.86322	167.90468	829.53766	-474.19028	137.56953	833.89343	-536.37732	165.24168	759.17108	-535.69946	150.26407	1407.9957	-84.543282	132.93047	1226.7084	-12.456417	144.58801	1051.5776	-12.716359	219.78246	947.30774	10.194192	281.76993	855.80005	-48.951626	241.77458	840.12189	8.8525372	303.2998	783.57123	14.70367	224.52426	941.43512	-377.50842	211.5127	950.85822	-131.87137	18.177504	956.91162	-305.26648	13.940842	955.4173	-233.50624	220.21362	756.69012	-449.05408	306.43356	518.88171	-422.09317	235.72789	394.33051	-432.181	145.8828	155.86693	-393.55078	60.86541	118.80376	-331.11789	270.58044	81.797974	-388.82562	160.32797	734.82898	-91.317245	123.87237	478.78726	-138.40849	55.938606	312.47797	-130.82089	24.526794	86.479454	-189.73752	-59.22794	38.616665	-236.22035	170.23224	49.796848	-220.59793
1637	8.175	245.35986	1666.4572	-322.49911	232.18195	1660.4899	-190.32347	129.98325	1591.9017	-330.5177	121.42783	1579.5403	-193.5771	84.069908	1464.5967	-258.39789	30.454063	1159.6451	-240.50809	211.8212	1381.2848	-266.58722	242.02194	1181.0974	-265.2103	18.916866	1282.5952	-182.92511	133.48599	1407.007	-440.77051	71.825737	1210.3009	-504.36014	84.267548	1056.4624	-509.74954	136.51085	948.89673	-528.67975	160.4057	828.89075	-474.97662	129.45305	833.42181	-536.3526	155.54932	758.19855	-535.86322	150.41508	1407.9176	-84.679977	134.53293	1226.7511	-12.293081	148.24229	1051.5966	-12.259007	225.12598	948.43817	10.417031	288.03763	857.89307	-48.957584	248.73885	841.65729	9.0621758	311.04318	785.84338	14.686335	224.33289	941.34412	-377.33795	210.95166	950.77063	-131.82858	17.741009	956.86224	-306.13873	13.207742	955.38739	-234.28886	220.26717	757.12787	-449.02979	308.05307	519.52032	-422.01236	240.05176	393.42023	-432.06879	156.78412	152.51784	-393.51181	72.471298	113.06007	-331.15414	283.50519	81.926552	-388.431	158.26395	734.67645	-91.636681	120.2099	478.75192	-138.45781	51.227909	312.6889	-131.16444	18.955013	86.861755	-189.95389	-64.23452	38.782669	-236.26892	164.59222	49.645691	-220.45735
1638	8.18	245.32112	1666.2313	-322.70883	232.16544	1660.3296	-190.59117	129.95274	1591.7009	-330.64709	121.45423	1579.3956	-193.67886	84.034157	1464.5607	-258.40335	29.881987	1159.7715	-240.86258	211.64951	1381.0778	-266.78516	241.63069	1180.8723	-265.23434	18.695766	1282.6624	-182.87985	133.27138	1406.963	-440.95102	69.633408	1210.5708	-503.89688	80.434212	1056.7189	-508.90619	130.71155	948.69824	-528.62561	151.92035	827.57019	-474.9841	121.33949	833.20825	-536.37195	145.86777	757.28748	-535.98993	150.52658	1407.7494	-84.80304	136.1416	1226.7634	-12.212003	151.93684	1051.6998	-11.69579	230.42708	949.56976	10.570516	294.39081	859.98889	-49.071419	255.58904	843.15771	9.1856604	318.80658	788.26019	14.675262	224.14497	941.17963	-377.17313	209.14243	950.4325	-131.41617	17.283367	956.68335	-306.72284	12.364851	955.43121	-235.13132	220.70847	757.5802	-449.28558	309.57175	520.15234	-421.87296	244.25557	392.47134	-431.97537	167.7756	149.20265	-393.52637	84.494278	107.62653	-331.26218	296.42862	82.166283	-387.9624	155.99637	734.6026	-91.764664	116.65009	478.76959	-138.49509	46.369972	313.19492	-131.42892	13.526346	87.163506	-190.26331	-69.889671	39.3419	-236.46786	158.80244	49.447395	-220.53062
1639	8.185	245.30507	1666.0135	-322.92502	232.24377	1660.2244	-190.7765	129.98131	1591.3849	-330.72415	121.47186	1579.2389	-193.80511	84.13427	1464.3634	-258.46252	29.392906	1159.8917	-241.14182	211.57736	1380.782	-266.8746	241.20103	1180.6005	-265.33826	18.471825	1282.6647	-182.87122	133.06664	1406.9647	-441.17807	67.4972	1210.7219	-503.28934	76.667381	1057.0653	-508.29279	124.8917	948.16144	-528.22815	144.2341	826.76508	-474.85159	113.25024	833.04352	-536.32568	136.3553	756.51904	-535.95544	150.6613	1407.5181	-84.938751	137.70697	1226.7448	-12.109479	155.52803	1051.6945	-11.26926	235.6933	950.80298	10.682752	300.73251	862.10358	-49.103725	262.39706	844.74445	9.3109112	326.68002	790.88702	14.411142	223.87268	941.02173	-377.00562	207.98698	950.1839	-131.30008	16.819696	956.86615	-307.59979	11.651912	955.38458	-235.9006	220.91797	757.87122	-449.46585	311.23114	520.34143	-421.30203	248.32587	391.52194	-431.8649	178.81792	145.85226	-393.35229	96.573517	101.95725	-331.5152	309.55417	82.461601	-387.3721	154.05484	734.38812	-91.998116	113.08172	478.72177	-138.71155	41.819843	313.69672	-131.55171	8.0183983	87.651939	-190.41356	-75.773773	40.51104	-236.53555	153.3105	49.426022	-220.23183
1640	8.19	245.30922	1665.7646	-323.17599	232.25156	1660.0161	-190.98779	130.18254	1591.1228	-330.72928	121.50455	1579.0562	-193.89201	84.12236	1464.2587	-258.48804	28.968361	1159.7238	-241.39215	211.42671	1380.5048	-267.1102	240.80052	1180.3092	-265.48752	18.260601	1282.6661	-182.91357	132.8947	1406.8182	-441.35013	65.363235	1211.1306	-502.93469	72.845093	1057.5289	-507.75467	119.04141	947.84131	-528.07788	136.72015	826.11005	-475.11115	105.38278	833.03064	-536.16022	127.3856	756.06812	-536.07056	150.78571	1407.2769	-85.100136	139.31908	1226.7701	-12.109308	159.13268	1051.7596	-10.825388	240.89052	952.00244	10.779118	306.70831	864.16168	-49.539761	269.15253	846.36932	9.3860626	334.00455	793.50439	14.299442	223.82103	940.79401	-376.9371	206.88438	949.8808	-131.31152	16.451321	956.8147	-308.39761	10.944196	955.33551	-236.65884	221.06001	758.0813	-449.66003	312.05518	521.03693	-421.49026	252.29758	390.34531	-431.6814	190.14865	142.93271	-393.5575	108.77392	96.555222	-331.59656	322.38272	83.015076	-386.85828	152.02968	734.24072	-92.305351	109.13274	478.47037	-138.56436	37.212624	314.12006	-131.91216	2.513927	88.119957	-190.50233	-81.00309	40.63118	-236.63033	147.60626	49.357742	-220.30342
1641	8.195	245.32101	1665.4756	-323.32935	232.28589	1659.8872	-191.17169	130.13617	1590.8229	-330.88159	121.55865	1578.8539	-194.01961	84.134216	1464.1346	-258.53552	28.485197	1159.701	-241.6796	211.33955	1380.1943	-267.26315	240.37219	1179.9944	-265.67014	18.068274	1282.6361	-182.94351	132.72487	1406.725	-441.53214	63.270844	1211.2654	-502.37662	68.841011	1057.9473	-507.24612	113.44396	947.65723	-527.58917	130.64912	825.87579	-476.48105	97.537132	833.10645	-536.17084	117.37195	755.27753	-535.74591	150.87068	1407.0341	-85.259354	140.83792	1226.734	-12.021747	162.66376	1051.8751	-10.36572	245.99226	953.24384	10.844147	312.84052	866.37445	-49.55019	275.78195	848.06842	9.4420366	341.48825	796.29114	14.161154	223.65079	940.54437	-376.89178	205.99709	949.69904	-131.10371	16.086267	956.75635	-309.12558	10.799651	954.85986	-237.33307	221.1046	758.13092	-449.88272	313.07138	521.55182	-421.20654	256.15881	389.15921	-431.5567	201.36382	139.71475	-393.59854	121.11185	91.347748	-331.66739	335.19464	83.600113	-386.30295	150.05038	734.1601	-92.563385	105.77252	478.73477	-138.62782	32.936974	314.6369	-131.96825	-3.0516493	88.670799	-190.47638	-86.83091	41.65546	-236.68803	142.17865	49.405846	-220.18362
1642	8.2	245.31525	1665.2041	-323.53842	232.29791	1659.6893	-191.37515	130.04936	1590.5143	-331.04526	121.58228	1578.6215	-194.14439	84.168236	1463.9653	-258.50858	27.980936	1159.814	-242.17928	211.2717	1379.9175	-267.42633	239.98477	1179.7117	-265.84949	17.848963	1282.5964	-183.03647	132.5892	1406.632	-441.77258	61.169312	1211.5795	-501.28043	65.092255	1058.4739	-506.72919	107.65361	947.72211	-527.62347	122.02898	825.61414	-475.72675	89.555466	833.16119	-535.81812	108.03059	754.93127	-535.63739	150.98375	1406.8018	-85.459526	142.39944	1226.6528	-12.014964	166.29257	1051.9242	-10.175755	251.00586	954.5011	10.873217	318.5347	868.50336	-49.719963	282.30594	849.77728	9.4484415	348.85339	799.05359	13.931209	223.65535	940.29279	-376.98236	204.66222	949.30988	-131.31355	15.756836	956.64667	-309.84726	9.7873459	955.07251	-238.11089	221.05453	758.12555	-450.10941	313.76096	521.75446	-420.91293	259.95651	387.84442	-431.37924	212.62602	136.80289	-393.25882	133.65141	85.919746	-331.53458	347.91846	84.309845	-385.66571	147.8895	734.01648	-92.567238	102.56402	478.72842	-138.76672	28.57909	315.01077	-132.49896	-8.4863338	89.199776	-190.52985	-92.469917	42.362679	-236.8213	136.12453	49.355587	-220.41908
